# xmcd
#
# Track frame offsets: 
#        150
#        13626
#        25875
#        44696
#        59048
#        71273
#        94619
#        112693
#        123315
#        130440
#        140478
#        151703
#        168320
#        185186
#        202154
#
# Disc length: 2848 seconds
#
# Revision: 0
# Processed by: cddbd v1.5.2PL0 Copyright (c) Steve Scherf et al.
# Submitted via: ExactAudioCopyFreeDBPlugin 1.0
#
DISCID=d40b1e0f
DTITLE=Morgan O'Kane - Nine Lives
DYEAR=2010
DGENRE=Bluegrass
TTITLE0=Time
TTITLE1=Git Back
TTITLE2=Don't Ask Me Why
TTITLE3=Tallulah May
TTITLE4=Another Dusk
TTITLE5=Gone
TTITLE6=I'll Calm The Ocean
TTITLE7=Wine Men
TTITLE8=Nine Lives
TTITLE9=Black Birds
TTITLE10=Mother
TTITLE11=Glory
TTITLE12=Snug Life
TTITLE13=When I Come Around
TTITLE14=Sail Away
EXTD=
EXTT0=
EXTT1=
EXTT2=
EXTT3=
EXTT4=
EXTT5=
EXTT6=
EXTT7=
EXTT8=
EXTT9=
EXTT10=
EXTT11=
EXTT12=
EXTT13=
EXTT14=
PLAYORDER=
